Coordinates
version=1
nRows=38
nColumns=12
inDegrees=yes

Units are S.I. units (second, meters, Newtons, ...)
Angles are in degrees

endheader
time	SC_y	SC_z	SC_x	AC_y	AC_z	AC_x	GH_y	GH_z	GH_yy	EL_x	PS_y
       0.0               -20.9          32.24          65.34          48.19          1.187          8.562         -115.4           22.9         -108.2          135.4          156.1
   0.02914              -20.91          32.23          65.34          48.19          1.186          8.561         -115.4           22.9         -108.2          135.4          156.1
   0.05828              -20.91          32.23          65.33          48.19          1.186           8.56         -115.4          22.91         -108.2          135.4          156.1
   0.08741              -20.92          32.22          65.32          48.18          1.185           8.56         -115.4          22.91         -108.2          135.4          156.1
    0.1166              -20.92          32.22          65.32          48.18          1.183          8.559         -115.4          22.92         -108.1          135.4          156.1
    0.1457              -20.93          32.21          65.31          48.18          1.182          8.558         -115.4          22.92         -108.1          135.3          156.1
    0.1748              -20.93           32.2           65.3          48.18          1.181          8.558         -115.3          22.93         -108.1          135.3          156.1
     0.204              -20.94          32.19           65.3          48.18           1.18          8.557         -115.3          22.93         -108.1          135.3          156.1
    0.2331              -20.94          32.19          65.29          48.18          1.178          8.556         -115.3          22.94         -108.1          135.3          156.1
    0.2622              -20.95          32.18          65.28          48.17          1.177          8.555         -115.3          22.95         -108.1          135.3          156.1
    0.2914              -20.96          32.17          65.27          48.17          1.175          8.554         -115.3          22.96         -108.0          135.3          156.1
    0.3205              -20.97          32.16          65.26          48.17          1.173          8.552         -115.2          22.97         -108.0          135.2          156.1
    0.3497              -20.98          32.15          65.25          48.17          1.172          8.551         -115.2          22.98         -108.0          135.2          156.1
    0.3788              -20.98          32.13          65.24          48.16          1.169           8.55         -115.2          22.99         -108.0          135.2          156.0
    0.4079              -20.99          32.12          65.22          48.16          1.167          8.548         -115.1           23.0         -107.9          135.2          156.0
    0.4371               -21.0          32.11          65.21          48.16          1.165          8.547         -115.1          23.01         -107.9          135.2          156.0
    0.4662              -21.02          32.09           65.2          48.15          1.162          8.545         -115.1          23.02         -107.9          135.1          156.0
    0.4953              -21.03          32.07          65.18          48.15          1.159          8.543         -115.0          23.04         -107.8          135.1          156.0
    0.5245              -21.04          32.05          65.16          48.14          1.156          8.541         -115.0          23.05         -107.8          135.1          156.0
    0.5536              -21.06          32.03          65.14          48.14          1.153          8.539         -114.9          23.07         -107.7          135.0          156.0
    0.5828              -21.07          32.01          65.12          48.13          1.149          8.536         -114.9          23.09         -107.7          135.0          155.9
    0.6119              -21.09          31.99           65.1          48.13          1.145          8.534         -114.8          23.11         -107.6          135.0          155.9
     0.641              -21.11          31.96          65.07          48.12          1.141          8.531         -114.7          23.13         -107.6          134.9          155.9
    0.6702              -21.13          31.93          65.04          48.11          1.136          8.527         -114.7          23.16         -107.5          134.9          155.9
    0.6993              -21.16           31.9          65.01           48.1           1.13          8.524         -114.6          23.19         -107.4          134.8          155.9
    0.7284              -21.19          31.86          64.97          48.09          1.124           8.52         -114.5          23.22         -107.3          134.7          155.8
    0.7576              -21.22          31.82          64.93          48.08          1.117          8.515         -114.4          23.25         -107.3          134.7          155.8
    0.7867              -21.25          31.77          64.89          48.07          1.109           8.51         -114.2          23.29         -107.2          134.6          155.7
    0.8159              -21.29          31.72          64.84          48.06            1.1          8.504         -114.1          23.34         -107.0          134.5          155.7
     0.845              -21.34          31.66          64.78          48.04           1.09          8.497         -114.0          23.39         -106.9          134.4          155.7
    0.8741              -21.39          31.59          64.71          48.03          1.079           8.49         -113.8          23.45         -106.7          134.3          155.6
    0.9033              -21.45          31.51          64.64          48.01          1.065          8.481         -113.6          23.51         -106.6          134.1          155.5
    0.9324              -21.51          31.42          64.55          47.98           1.05          8.471         -113.4          23.59         -106.4          134.0          155.5
    0.9615              -21.59          31.32          64.45          47.96          1.032          8.459         -113.1          23.68         -106.1          133.8          155.4
    0.9907              -21.68           31.2          64.33          47.93          1.012          8.446         -112.8          23.78         -105.9          133.6          155.3
      1.02              -21.79          31.05          64.19          47.89         0.9874          8.429         -112.4          23.91         -105.5          133.3          155.2
     1.049              -21.92          30.88          64.02          47.85         0.9584           8.41         -112.0          24.06         -105.2          133.1          155.0
     1.078              -22.08          30.67          63.82           47.8         0.9236          8.387         -111.4          24.23         -104.7          132.7          154.8
